<?xml version="1.0" standalone="no"?>
<!DOCTYPE svg PUBLIC "-//W3C//DTD SVG 20010904//EN"
 "http://www.w3.org/TR/2001/REC-SVG-20010904/DTD/svg10.dtd">
<svg version="1.0" xmlns="http://www.w3.org/2000/svg"
 width="119.000000pt" height="98.000000pt" viewBox="0 0 119.000000 98.000000"
 preserveAspectRatio="xMidYMid meet">

<g transform="translate(0.000000,98.000000) scale(0.100000,-0.100000)"
fill="#000000" stroke="none">
<path d="M445 952 c-60 -6 -139 -34 -189 -66 -304 -196 -282 -623 41 -783 63
-31 82 -36 150 -37 63 -1 78 2 78 14 0 11 -16 17 -60 22 -135 14 -249 97 -312
226 -36 73 -38 80 -38 176 0 93 3 107 32 168 59 125 167 211 298 238 76 16 76
51 0 42z"/>
<path d="M639 927 c-97 -65 -52 -227 62 -227 78 0 129 49 129 125 0 101 -107
158 -191 102z"/>
<path d="M301 641 c-27 -27 -34 -60 -29 -127 8 -89 23 -98 171 -102 98 -3 124
-6 135 -20 8 -11 12 -57 12 -143 0 -70 3 -135 6 -144 11 -27 60 -45 123 -45
49 0 65 4 88 24 l28 24 0 159 c0 106 -4 170 -13 196 -21 58 -83 129 -143 162
-52 29 -59 30 -206 33 -142 4 -153 2 -172 -17z"/>
<path d="M755 650 c-3 -5 9 -26 28 -47 46 -53 63 -83 80 -139 l14 -49 107 -3
107 -3 31 31 c29 30 30 33 26 104 -5 116 -5 116 -214 116 -100 0 -175 -4 -179
-10z"/>
</g>
</svg>
